<?xml version="1.0" encoding="utf-8"?>
<!-- Generator: Adobe Illustrator 27.9.0, SVG Export Plug-In . SVG Version: 6.00 Build 0)  -->
<svg version="1.1" id="Layer_1" xmlns="http://www.w3.org/2000/svg" xmlns:xlink="http://www.w3.org/1999/xlink"  height="64" width="200" xml:space="preserve">
<style type="text/css">
	.st0{fill:#19191A;}
</style>
<g transform="scale(0.15,0.15)">
	<path class="st0" d="M951.4,340.7c0.7-6.2,5.7-10.6,12.5-10.6c6.7,0,11.5,4.5,12,10.6H951.4z M942.4,344.7
	c0,12.4,9.8,22.3,22.6,22.3c8.3,0,15.4-4.2,19.3-10.6l-7.3-4.2c-2.2,4-6.7,6.7-12,6.7c-7,0-12.6-4.6-13.5-11h33.5
	c0.1-1.1,0.2-2.1,0.2-3.2c0-12.7-9.1-22.4-21.3-22.4C951.6,322.2,942.4,331.9,942.4,344.7 M924,323.3h-8.3v42.6h8.8v-21.7
	c0-5,1.3-7.8,3.4-9.9c2.1-2,5.2-3.4,8.9-3.4c1,0,1.9,0.1,2.9,0.2V323c-0.9-0.1-1.9-0.2-2.8-0.2c-4.6,0-8.7,1.7-11.6,4.5
	c-0.5,0.4-0.9,0.9-1.3,1.4V323.3z M876.9,323.3h-8.8v25.9c0,6.1,1.8,9.8,4.6,12.7c3.2,3.2,8,5.2,13.5,5.2s10.2-2,13.5-5.2
	c3-2.9,4.7-6.6,4.7-12.7v-25.9h-8.8v25.5c0,4-0.9,6-2.4,7.4c-1.7,1.6-4.2,2.7-7,2.7c-2.8,0-5.2-1-6.9-2.7c-1.5-1.4-2.4-3.5-2.4-7.4
	V323.3z M730.1,323.3h-8.3v42.6h8.8v-21.7c0-5,1.3-7.8,3.4-9.9c2.1-2,5.2-3.4,8.9-3.4c1,0,1.9,0.1,2.9,0.2V323
	c-0.9-0.1-1.9-0.2-2.8-0.2c-4.6,0-8.7,1.7-11.6,4.5c-0.5,0.4-0.9,0.9-1.3,1.4V323.3z M697.4,323.3h-8.1v7.6h8.1v35h8.8v-35h9.3v-7.6
	h-9.3V307h-8.8V323.3z M611.4,344.6c0-8,6.1-14.2,14.1-14.2s14.1,6.2,14.1,14.2c0,8-6.1,14.2-14.1,14.2S611.4,352.6,611.4,344.6
	 M602.2,344.6c0,12.4,9.7,22.4,22.3,22.4c5.6,0,10.5-2.1,14.2-5.4v4.4h8.5v-42.6h-8.5v4.4c-3.7-3.4-8.6-5.4-14.2-5.4
	C611.9,322.2,602.2,332.2,602.2,344.6 M583.9,323.3h-8.3v42.6h8.8v-21.7c0-5,1.3-7.8,3.4-9.9c2.1-2,5.2-3.4,8.9-3.4
	c1,0,1.9,0.1,2.9,0.2V323c-0.9-0.1-1.8-0.2-2.8-0.2c-4.6,0-8.7,1.7-11.6,4.5c-0.5,0.4-0.9,0.9-1.3,1.4V323.3z M549.4,323.3h-8.1v7.6
	h8.1v35h8.8v-35h11.3v-7.6h-11.3V312c0-3.7,0.7-5.3,1.9-6.5c1.1-1.1,3-1.9,4.9-1.9c1.7,0,3.1,0.4,4.4,0.9v-7.9
	c-1.8-0.7-3.8-1.1-5.7-1.1c-4.1,0-7.5,1.4-10.1,3.9c-2.7,2.6-4.3,6-4.3,11.7V323.3z M507,323.3h-8.3v42.6h8.8v-24.4
	c0-4.5,1.1-6.9,2.9-8.5c1.8-1.7,4.2-2.7,6.9-2.7c2.8,0,5.2,1,6.9,2.7c1.7,1.6,2.8,3.9,2.8,8.5v24.4h8.8v-25.1
	c0-6.5-1.9-10.8-5.1-13.8c-3.1-2.9-7.2-4.7-11.9-4.7c-4.7,0-8.8,1.7-11.8,4.5V323.3z M485.6,298.7h-9.3v67.2h9.3V298.7z
	 M425.8,358.8c-8,0-14.1-6.2-14.1-14.2c0-8,6.1-14.2,14.1-14.2c8,0,14.1,6.2,14.1,14.2C439.8,352.6,433.7,358.8,425.8,358.8
	 M438.8,361.6v4.9c0,5.8-1.3,9-3.4,11.2c-2.3,2.4-5.6,3.7-9.4,3.7c-6.9,0-12.3-4.3-12.9-10.3h-8.7c0.6,10.3,9.6,18.5,21.6,18.5
	c6.5,0,12.1-2.4,16-6.5c3.5-3.7,5.5-8.6,5.5-16.4v-43.4H439v4.4c-3.7-3.4-8.6-5.4-14.2-5.4c-12.6,0-22.3,10-22.3,22.4
	c0,12.4,9.7,22.4,22.3,22.4C430.3,367,435.1,365,438.8,361.6 M365.6,323.3h-8.3v42.6h8.8v-24.4c0-4.5,1.1-6.9,2.9-8.5
	c1.8-1.7,4.2-2.7,6.9-2.7c2.8,0,5.2,1,6.9,2.7c1.7,1.6,2.8,3.9,2.8,8.5v24.4h8.8v-25.1c0-6.5-1.9-10.8-5.1-13.8
	c-3.1-2.9-7.2-4.7-11.9-4.7c-4.7,0-8.8,1.7-11.7,4.5V323.3z M345.6,323.3h-8.8v42.6h8.8V323.3z M335.1,310.7c0,3.2,2.9,6,6.2,6
	c3.3,0,6.1-2.8,6.1-6c0-3.2-2.8-5.9-6.1-5.9C337.9,304.8,335.1,307.5,335.1,310.7 M292.4,344.6c0,12.4,10.1,22.4,23.2,22.4
	c4.3,0,8.4-1.2,11.8-3.2v-9.2c-2.9,2.7-6.8,4.3-11.4,4.3c-8.2,0-14.5-6.2-14.5-14.3c0-8.1,6.3-14.3,14.5-14.3
	c4.5,0,8.5,1.6,11.4,4.3v-9.2c-3.4-2-7.5-3.2-11.8-3.2C302.4,322.2,292.4,332.2,292.4,344.6 M199.7,344.6c0-8,6.1-14.2,14.1-14.2
	c8,0,14.1,6.2,14.1,14.2c0,8-6.1,14.2-14.1,14.2C205.8,358.8,199.7,352.6,199.7,344.6 M190.5,344.6c0,12.4,9.7,22.4,22.3,22.4
	c5.6,0,10.5-2.1,14.2-5.4v4.4h8.5v-42.6H227v4.4c-3.7-3.4-8.6-5.4-14.2-5.4C200.2,322.2,190.5,332.2,190.5,344.6 M154.7,323.3h-9.3
	l22.3,45.6l22.3-45.6h-9.2l-13,26.9h-0.2L154.7,323.3z M103.7,344.6c0-8,6.1-14.2,14.1-14.2s14.1,6.2,14.1,14.2
	c0,8-6.1,14.2-14.1,14.2S103.7,352.6,103.7,344.6 M94.5,344.6c0,12.4,9.7,22.4,22.3,22.4c5.6,0,10.5-2.1,14.2-5.4v4.4h8.5v-69.4
	h-8.8v30.9c-3.7-3.3-8.5-5.3-13.9-5.3C104.3,322.2,94.5,332.2,94.5,344.6 M60.8,316.8H61L72.5,342H49.2L60.8,316.8z M61,296
	l-32.4,69.9h9.6l7.2-15.4h30.9l7.2,15.4h9.8L61,296z M203.9,160.8c0,19.7-16.2,33.7-41.9,33.7H73.6V135h89
	C188.1,135,203.9,145.2,203.9,160.8 M191.4,68c0,16.8-12.5,28-33,28H73.6V39.1h77.5C175.9,39.1,191.4,51.2,191.4,68 M199,113.7
	c15.8-3.5,36.9-24.5,36.9-55.6C235.9,22.9,205.5,0,161,0H29.5v95.7H0v39.4h29.5v98.4h142.8c46.5,0,76.2-28,76.2-65.8
	C248.4,134.1,222.7,115,199,113.7 M267.2,322.2c-4.7,0-8.8,1.7-11.8,4.5v-3.4h-8.3v42.6h8.8v-24.4c0-4.5,1.1-6.9,2.9-8.5
	c1.8-1.7,4.2-2.7,6.9-2.7c2.8,0,5.2,1,6.9,2.7c1.7,1.6,2.8,3.9,2.8,8.5v24.4h8.8v-25.1c0-6.5-1.9-10.8-5.1-13.8
	C276.1,324,272,322.2,267.2,322.2 M306.5,127.7c5.9-21.6,26.1-36.5,51.4-36.5c25.1,0,45.2,14.9,50.5,36.5H306.5z M306.5,163h144.4
	v-16.2c0-56.9-39.2-93.7-93.7-93.7s-97,39.1-97,91.8c0,62.9,50.1,92.5,99.9,92.5c36.9,0,71.6-17.8,86.7-43.2l-32-22.6
	c-11.5,16.2-28.4,27.6-52.8,27.6C337.1,199.2,313.4,185.6,306.5,163 M605,233.5h42.9V115.7c0-33-31-62.6-72.2-62.6
	c-23.7,0-45.5,7.3-62,22.6V58.1h-40.2v175.4h42.9V130.3c0-22.6,23.4-39.1,46.5-39.1c26.1,0,42.2,15.2,42.2,40.3V233.5z M677.1,354
	c0,3.1-2.7,5.3-6.3,5.3c-3.5,0-6.5-2-7.3-5l-8.1,1.7c1.3,6.3,7.7,11,15.4,11c8.5,0,15.1-5.8,15.1-13.2c0-6.2-4.4-10.5-9.3-12.4
	l-6.7-2.6c-3.5-1.3-4.3-2.9-4.3-4.6c0-2.5,2.1-4.3,4.8-4.3c2.5,0,4.4,1.6,5.1,3.8l8-2.8c-1.7-5.1-6.8-8.7-13-8.7
	c-7.6,0-13.6,5.3-13.6,12.1c0,5.4,3.3,9.6,9.2,11.9l6.8,2.7C675.6,349.9,677.1,351.7,677.1,354 M720.2,96.3h35.3V58.1h-35.3V6.7
	l-42.9,14.9v36.5h-18.1v38.1h18.1v137.3h42.9V96.3z M776.7,356.2c-1.7,1.6-4.2,2.7-7,2.7c-2.8,0-5.2-1-6.9-2.7
	c-1.5-1.4-2.4-3.5-2.4-7.4v-25.5h-8.8v25.9c0,6.1,1.8,9.8,4.6,12.7c3.2,3.2,8,5.2,13.5,5.2s10.2-2,13.5-5.2c3-2.9,4.7-6.6,4.7-12.7
	v-25.9h-8.8v25.5C779.1,352.8,778.2,354.8,776.7,356.2 M774,233.2h42.9V0H774V233.2z M819.1,367c4.3,0,8.4-1.2,11.8-3.2v-9.2
	c-2.9,2.7-6.8,4.3-11.4,4.3c-8.2,0-14.5-6.2-14.5-14.3c0-8.1,6.3-14.3,14.5-14.3c4.5,0,8.5,1.6,11.4,4.3v-9.2
	c-3.4-2-7.5-3.2-11.8-3.2c-13.1,0-23.2,10-23.2,22.4C795.8,357,805.9,367,819.1,367 M844.1,323.3H836v7.6h8.1v35h8.8v-35h9.3v-7.6
	h-9.3V307h-8.8V323.3z M883.4,127.7c5.9-21.6,26.1-36.5,51.5-36.5c25.1,0,45.2,14.9,50.4,36.5H883.4z M883.4,163h144.4v-16.2
	c0-56.9-39.2-93.7-93.7-93.7c-54.4,0-97,39.1-97,91.8c0,62.9,50.1,92.5,99.9,92.5c36.9,0,71.6-17.8,86.7-43.2l-32-22.6
	c-11.5,16.2-28.4,27.6-52.8,27.6C914.1,199.2,890.3,185.6,883.4,163 M1222.2,215.7V58.1h-42.9V156c0,22.6-23.4,39.4-46.5,39.4
	c-26.1,0-42.2-15.6-42.2-40.4V58.1h-42.9v112.5c0,33.4,33.6,62.9,78.8,62.9c19.8,0,40.2-8.3,54.4-23.5v4.4
	c0,26.4-21.4,44.8-52.8,44.8c-20.4,0-45.2-6.4-63-19.4l-21.8,31.8c21.1,15.6,54.1,25.7,85.4,25.7
	C1182,297.4,1222.2,261.8,1222.2,215.7 M1269.2,71.7c0,2.1-1.2,3.2-3.6,3.2h-5.7v-5.7h5.7C1268,69.2,1269.2,70,1269.2,71.7
	 M1276,87.5l-6.7-8.7c2.9-1.1,4.8-4,4.8-7.2c0-4.4-3-6.7-7.2-6.7h-12.1v22.6h5v-8.3h4l6.3,8.3H1276z M1281.7,76.1
	c0,9.4-7.2,16.4-17,16.4c-9.8,0-17-7-17-16.4c0-9.5,7.3-16.5,17-16.5C1274.5,59.6,1281.7,66.6,1281.7,76.1 M1286.1,76
	c0-12-9.1-20.8-21.4-20.8c-12.3,0-21.5,8.8-21.5,20.8c0,11.9,9.2,20.8,21.5,20.8C1277,96.8,1286.1,87.9,1286.1,76"/>
</g>
</svg>